<svg width="165" height="153.67" xmlns="http://www.w3.org/2000/svg">
 <defs>
  <style>.cls-1,.cls-16,.cls-25{fill:none;}.cls-2{font-size:12px;fill:#767676;font-family:SegoeUI, Segoe UI;}.cls-3{letter-spacing:-0.09em;}.cls-4{fill:#59b4d9;}.cls-5{fill:#68217a;}.cls-6{fill:#3999c6;}.cls-7{fill:#fcd116;}.cls-11,.cls-8{fill:#ff8c00;}.cls-8{opacity:0.3;}.cls-10,.cls-18,.cls-28,.cls-8{isolation:isolate;}.cls-9{fill:#7a7a7a;}.cls-10,.cls-13,.cls-18,.cls-28{fill:#fff;}.cls-10,.cls-12{opacity:0.2;}.cls-14{fill:#0078d7;}.cls-15{letter-spacing:-0.03em;}.cls-16{stroke:#969696;stroke-miterlimit:10;}.cls-17{fill:#969696;}.cls-18{opacity:0.5;}.cls-19{fill:#b8d432;}.cls-20{fill:#26bcee;}.cls-21{fill:#0f0f0f;}.cls-22{clip-path:url(#clip-path);}.cls-23{fill:#333;}.cls-24{fill:#505050;}.cls-25{stroke:#fff;stroke-linecap:round;stroke-linejoin:round;stroke-width:0.39px;}.cls-26{fill:#737373;}.cls-27{fill:#804998;}.cls-28{opacity:0.8;}</style>
 </defs>
 <g>
  <title>background</title>
  <rect fill="none" id="canvas_background" height="155.67" width="167" y="-1" x="-1"/>
 </g>
 <g>
  <title>Layer 1</title>
  <g stroke="null" id="Layer_1">
   <path stroke="null" id="svg_1" d="m134.842214,68.779145a53.008153,53.008153 0 1 1 -63.896439,-38.837199l0,0a52.707627,52.707627 0 0 1 63.873321,38.837199l0.023117,0z" class="cls-4"/>
   <path stroke="null" id="svg_2" d="m75.777308,102.484285a14.240306,14.240306 0 0 0 -14.124719,-14.124719l-2.311738,0a14.217189,14.217189 0 0 0 -10.264117,-17.014392a12.044155,12.044155 0 0 0 -3.536959,-0.323643l-14.124719,0a51.875401,51.875401 0 0 0 12.830146,45.26383l17.661678,0a13.315611,13.315611 0 0 0 13.870428,-13.870428l0,0.069352z" class="cls-18"/>
   <path stroke="null" id="svg_3" d="m93.438986,44.390308a7.073918,7.073918 0 0 0 0.323643,2.566029l-6.102988,0a14.725771,14.725771 0 0 0 -14.772006,14.772006a14.517715,14.517715 0 0 0 14.772006,14.772006l48.546498,0a52.407101,52.407101 0 0 0 -27.278509,-41.726871l-5.779345,0a9.455008,9.455008 0 0 0 -9.7093,9.61683z" class="cls-18"/>
   <path stroke="null" id="svg_4" d="m136.11367,86.648879l-28.873608,0a11.859216,11.859216 0 0 0 -11.882333,11.882333a18.748195,18.748195 0 0 0 1.294573,5.779345a11.836099,11.836099 0 0 0 3.860602,23.11738l7.698088,0a52.753861,52.753861 0 0 0 27.902678,-40.779059z" class="cls-18"/>
   <path stroke="null" id="svg_5" d="m24.109963,45.985408a1.525747,1.525747 0 0 1 -1.595099,-1.595099a18.632608,18.632608 0 0 0 -18.609491,-18.609491a1.294573,1.294573 0 0 1 -1.595099,-1.294573a1.710686,1.710686 0 0 1 1.595099,-1.595099a18.632608,18.632608 0 0 0 18.609491,-18.609491a1.595099,1.595099 0 1 1 3.213316,0a18.632608,18.632608 0 0 0 18.609491,18.609491a1.595099,1.595099 0 0 1 0,3.213316a18.632608,18.632608 0 0 0 -18.609491,18.609491a1.479512,1.479512 0 0 1 -1.618217,1.271456z" class="cls-19"/>
   <path stroke="null" id="svg_6" d="m138.379173,150.314144a0.855343,0.855343 0 0 1 -0.97093,-0.97093a11.096342,11.096342 0 0 0 -11.235047,-10.911403a0.97093,0.97093 0 1 1 0,-1.918743l0,0a11.304399,11.304399 0 0 0 11.235047,-10.911403a0.97093,0.97093 0 1 1 1.918743,0a11.096342,11.096342 0 0 0 11.235047,10.911403a0.97093,0.97093 0 1 1 0,1.918743l0,0a11.304399,11.304399 0 0 0 -11.235047,10.911403a1.017165,1.017165 0 0 1 -0.97093,0.97093l0.023117,0z" class="cls-20"/>
   <path stroke="null" id="svg_7" d="m160.525623,33.779431c-5.132058,-8.345374 -17.661678,-10.264117 -36.987808,-5.455702a155.441264,155.441264 0 0 0 -17.338035,5.455702a68.56615,68.56615 0 0 1 10.264117,6.426632c3.213316,-0.97093 6.426632,-1.918743 9.246952,-2.889673a85.002607,85.002607 0 0 1 15.396175,-2.311738c6.102988,0 9.639948,1.595099 10.911403,3.536959c1.918743,3.213316 0,11.235047 -10.911403,24.065193c-1.918743,2.311738 -4.161128,4.484772 -6.426632,6.750275a229.671172,229.671172 0 0 1 -39.808129,30.491824a203.895293,203.895293 0 0 1 -45.587474,21.499164c-19.256778,6.102988 -32.364332,6.102988 -35.300239,1.294573s2.889673,-16.690748 17.338035,-30.815468a54.395195,54.395195 0 0 1 -1.294573,-12.205977c-22.793737,20.551351 -30.168181,38.513555 -24.388836,48.153503c3.213316,5.132058 9.940473,8.021731 19.580421,8.021731a104.328737,104.328737 0 0 0 34.167488,-7.32821a223.706888,223.706888 0 0 0 40.131772,-20.227708a226.134213,226.134213 0 0 0 36.271169,-26.954865a115.217023,115.217023 0 0 0 12.52962,-12.52962c13.153789,-14.748889 17.407387,-26.954865 12.205977,-34.976596z" class="cls-21"/>
  </g>
 </g>
</svg>